<?xml version="1.0" encoding="utf-8"?>
<!-- Generator: Adobe Illustrator 28.0.0, SVG Export Plug-In . SVG Version: 6.00 Build 0)  -->
<svg version="1.1" id="Capa_1" xmlns="http://www.w3.org/2000/svg" xmlns:xlink="http://www.w3.org/1999/xlink" x="0px" y="0px"
	 viewBox="0 0 699 699" style="enable-background:new 0 0 699 699;" xml:space="preserve">
<style type="text/css">
	.st0{fill:none;stroke:#F4D644;stroke-width:99;stroke-linecap:round;stroke-linejoin:round;stroke-miterlimit:133.3333;}
</style>
<g id="SVGRepo_bgCarrier">
</g>
<g id="SVGRepo_tracerCarrier">
</g>
<g id="SVGRepo_iconCarrier">
	<path class="st0" d="M482.8,349.5c0,73.6-59.7,133.3-133.3,133.3c-73.6,0-133.3-59.7-133.3-133.3c0-73.6,59.7-133.3,133.3-133.3
		C423.1,216.2,482.8,275.9,482.8,349.5z M482.8,349.5v50c0,46,37.3,83.3,83.3,83.3l0,0c46,0,83.3-37.3,83.3-83.3v-50
		c0-165.7-134.3-300-300-300c-165.7,0-300,134.3-300,300c0,165.7,134.3,300,300,300h133.3"/>
</g>
</svg>
