<?xml version="1.0" encoding="utf-8"?>
<!-- Generator: Adobe Illustrator 28.0.0, SVG Export Plug-In . SVG Version: 6.00 Build 0)  -->
<svg version="1.1" id="Capa_1" xmlns="http://www.w3.org/2000/svg" xmlns:xlink="http://www.w3.org/1999/xlink" x="0px" y="0px"
	 viewBox="0 0 766.7 766.7" style="enable-background:new 0 0 766.7 766.7;" xml:space="preserve">
<style type="text/css">
	.st0{fill:#F4D644;stroke:#F4D644;stroke-width:30;stroke-miterlimit:133.3333;}
	.st1{fill-rule:evenodd;clip-rule:evenodd;fill:#F4D644;stroke:#F4D644;stroke-width:30;stroke-miterlimit:133.3333;}
</style>
<g id="SVGRepo_bgCarrier">
</g>
<g id="SVGRepo_tracerCarrier">
</g>
<g>
	<path class="st0" d="M200,250c27.6,0,50-22.4,50-50s-22.4-50-50-50s-50,22.4-50,50S172.4,250,200,250z"/>
	<path class="st0" d="M150,316.7c0-18.4,14.9-33.3,33.3-33.3h33.3c18.4,0,33.3,14.9,33.3,33.3v266.7c0,18.4-14.9,33.3-33.3,33.3
		h-33.3c-18.4,0-33.3-14.9-33.3-33.3V316.7z"/>
	<path class="st0" d="M350,616.7h33.3c18.4,0,33.3-14.9,33.3-33.3v-150c0-50,100-83.3,100-16.7v166.7c0,18.4,14.9,33.3,33.3,33.3
		h33.3c18.4,0,33.3-14.9,33.3-33.3v-200c0-66.7-50-100-116.7-100s-83.3,50-83.3,50v-16.7c0-18.4-14.9-33.3-33.3-33.3H350
		c-18.4,0-33.3,14.9-33.3,33.3v266.7C316.7,601.7,331.6,616.7,350,616.7z"/>
	<path class="st1" d="M650,16.7c55.2,0,100,44.8,100,100V650c0,55.2-44.8,100-100,100H116.7c-55.2,0-100-44.8-100-100V116.7
		c0-55.2,44.8-100,100-100H650z M650,83.3c18.4,0,33.3,14.9,33.3,33.3V650c0,18.4-14.9,33.3-33.3,33.3H116.7
		c-18.4,0-33.3-14.9-33.3-33.3V116.7c0-18.4,14.9-33.3,33.3-33.3H650z"/>
</g>
</svg>
