<?xml version="1.0" encoding="utf-8"?>
<!-- Generator: Adobe Illustrator 28.0.0, SVG Export Plug-In . SVG Version: 6.00 Build 0)  -->
<svg version="1.1" id="Flat" xmlns="http://www.w3.org/2000/svg" xmlns:xlink="http://www.w3.org/1999/xlink" x="0px" y="0px"
	 viewBox="0 0 625.1 625.1" style="enable-background:new 0 0 625.1 625.1;" xml:space="preserve">
<style type="text/css">
	.st0{fill:#F4D644;stroke:#000000;stroke-width:0.25;stroke-miterlimit:10;}
	.st1{fill:none;stroke:#000000;stroke-width:0.25;stroke-miterlimit:10;}
</style>
<g>
	<path class="st0" d="M467.3,41C420.1,14.1,366.8,0,312.5,0C139.9,0,0,140,0,312.7c0,54.2,14.1,107.5,41,154.7l-28.1,98.5
		c-5.7,19.9,5.8,40.7,25.8,46.4c6.7,1.9,13.9,1.9,20.6,0l98.5-28.1c149.9,85.5,340.8,33.2,426.3-116.7S617.2,126.5,467.3,41z
		 M399,478.4c-145-0.2-262.3-117.9-262.1-262.9c0.2-55.1,44.9-99.6,100-99.6c12.2,0,23.5,6.6,29.6,17.2l36.5,63.9
		c6.7,11.8,6.6,26.3-0.4,37.9L276.7,278c13.2,26.1,34.5,47.3,60.6,60.6l43.1-25.9c11.6-7,26.1-7.1,37.9-0.4l63.9,36.5
		c10.6,6.1,17.1,17.3,17.2,29.5c0,55.1-44.5,99.8-99.6,100H399z"/>
	<path class="st1" d="M499.4,378.4c0,55.1-44.5,99.8-99.6,100H399c-145-0.2-262.3-117.9-262.1-262.9c0.2-55.1,44.9-99.6,100-99.6
		c12.2,0,23.5,6.6,29.6,17.2l36.5,63.9c6.7,11.8,6.6,26.3-0.4,37.9L276.7,278c13.2,26.1,34.5,47.3,60.6,60.6l43.1-25.9
		c11.6-7,26.1-7.1,37.9-0.4l63.9,36.5C492.8,354.9,499.3,366.2,499.4,378.4z"/>
</g>
</svg>
