<?xml version="1.0" encoding="utf-8"?>
<!-- Generator: Adobe Illustrator 28.0.0, SVG Export Plug-In . SVG Version: 6.00 Build 0)  -->
<svg version="1.1" id="Capa_1" xmlns="http://www.w3.org/2000/svg" xmlns:xlink="http://www.w3.org/1999/xlink" x="0px" y="0px"
	 viewBox="0 0 217.7 336.5" style="enable-background:new 0 0 217.7 336.5;" xml:space="preserve">
<style type="text/css">
	.st0{fill:#7B387F;}
	.st1{fill:#C60F3D;}
	.st2{fill:#F96F24;}
	.st3{fill:#FEB319;}
	.st4{fill:#44012C;}
	.st5{fill:#FFFFFF;}
	.st6{fill:#19FF1F;}
	.st7{fill:#006AB8;}
	.st8{fill:#FDA814;}
	.st9{fill:#82008C;}
	.st10{fill:#162B4E;}
	.st11{fill:none;stroke:#27002A;stroke-width:0.5;stroke-miterlimit:10;}
	.st12{fill:#162B4E;stroke:#27002A;stroke-width:0.5;stroke-miterlimit:10;}
	.st13{fill:none;stroke:#5B0062;stroke-width:0.5;stroke-miterlimit:10;}
</style>
<g>
	<g>
		
			<ellipse transform="matrix(0.9999 -1.719754e-02 1.719754e-02 0.9999 -5.6084 1.8539)" class="st0" cx="105" cy="327" rx="105" ry="9.3"/>
		<path class="st1" d="M84.7,288.7c-0.2,2.5-1.2,4.7-2.8,6.4c-1,0.9-2.2,1.7-3.5,2.2v0.2v13.4l20.3,2.1c3.2,0.3,5.6,3.2,5.3,6.5
			c-0.3,3-2.9,5.3-5.9,5.3h-0.6l-4.2-0.4c-0.6,3.1-3.9,5.2-7.3,4c-2-0.8-3.6-5-3.6-5v-0.1l-1.4-0.1c0,0.1,0,0.1,0,0.2
			c0,3-2.5,5.5-5.6,5.3c-2.9-0.2-5.1-2.7-5-5.6c0-0.4,0.1-0.7,0.1-1l-2.5-0.3v0.5c0,3.2-2.8,5.7-6.1,5.2c-2.5-0.4-4.4-2.6-4.5-5.1
			c0-0.6,0.1-1.2,0.2-1.7l-2.1-0.2c-3.2-0.3-5.6-3.2-5.2-6.4c0.3-3,2.9-5.3,5.8-5.3h0.6l14.5,1.5v-12.7c0,0-0.2-0.1-0.4-0.3
			c-0.9-0.6-3.1-2.1-4.5-4.1c-0.6-0.9-1.3-3.2-1.3-3.3c-0.1-0.7-0.2-1.4-0.2-2.1c0-0.6,0.1-1.2,0.2-1.7c0.1-1.4,0.4-2.7,1-3.7
			c-4.1-2.4-7.9-5.1-11.3-8.4l-0.2-0.2c0,0-0.9-0.6-2.4-1.8c-6.5,3.1-12.9,4-18.4,2c-2.8,1-5.4,1.7-7.8,2.1
			c-5.3,0.7-9.4-0.2-10.8-2.8c-0.2-0.4-0.4-0.9-0.4-1.4l0,0c0-0.2,0-0.3,0-0.5c0-0.1,0-0.3,0-0.4c0.1-1.3,0.5-2.8,1.3-4.4
			c1.1-2.3,2.8-4.9,5.1-7.6c-3.5-12.2-1.2-29.6,7.2-46.5c1.7-3.3,3.5-6.5,5.4-9.5c-6.5,1.8-11,2-11.8,0.3
			c-1.8-3.6,12.1-14.1,30.9-23.4c3.6-1.8,7.1-3.4,10.4-4.8l0.2-3.4l0,0l-0.3-6.2c0-3-1.5-5.9-4-7.5c-20.4-13.3-33.4-35.2-32.7-59.6
			c0.1-3.9,0.6-7.8,1.4-11.5c-8,3.1-15.4,3.2-16.7,0.1c-1.4-3.3,4.3-8.8,12.7-12.3c2-0.9,4-1.5,5.9-2c-7.2-1.9-12.1-5.5-11.7-8.9
			c0.6-4.1,8.8-6.4,18.4-5c1.5,0.2,2.9,0.5,4.2,0.8c9.7-12.4,23.8-21.8,40.1-26.3c-13.9-9.5-22.3-20.9-19-26.1
			c3.5-5.4,18.5-1.9,33.4,7.7c5.1,3.3,9.6,6.9,13,10.5c-2.4-7.7-7.6-14.1-14.3-17.6c-3.5-1.8-2.6-7,1.3-7.5C96.3,0.1,97.6,0,98.8,0
			c15.4,0,27.9,13.5,27.9,30.2c0,0.9,0,1.8-0.1,2.7c0.7-2.3,1.1-4.8,1.1-7.4c0-8.4-4.1-15.9-10.5-20.5c-2.2-1.6-0.7-5.1,1.9-4.7
			c0.1,0,0.2,0,0.3,0.1c11.1,1.9,19.8,11.2,20.9,22.5c0.5,5.3-0.6,10.3-2.9,14.5c1.1,0.5,2.1,1,3.2,1.5c2.3-2.2,3.8-5.3,3.8-8.7
			c0-1.7-0.4-3.4-1-4.8c5,1.4,8.7,6,8.7,11.4c0,2.8-1,5.3-2.5,7.3c19.8,13.3,32.4,34.9,31.7,59c-0.1,3.9-0.6,7.8-1.4,11.5
			c-0.9,4.4-1.1,8.8-0.9,13.3v1.2c0,14.7-14,27.3-34.1,33.2c-2.7,0.8-4.6,3.3-4.6,6.1v4.4c0,0,0.7,3,1.9,5.3c0,0,0,0.1,0.1,0.1l0,0
			c1.2,0.6,2.5,1.2,3.7,1.8c12.3,6.1,22.5,12.7,27.6,17.5c2.5,2.5,3.7,4.5,3.1,5.7c-0.6,1.2-3,1.5-6.5,0.9c2,3,3.9,6.2,5.7,9.5
			c0.8,1.6,1.5,3.2,2.2,4.9c2,4.6,3.6,9,4.8,13.1c3.3,11.3,3.7,20.9,1.3,28.3c-1.1,4.5-2.9,8.4-5.4,11.4c0.1,0.5,0.3,0.9,0.7,1.2
			c1.9,1.7,1.5,4.8-0.8,5.9c-2.1,1.1-4.5,1.7-7,1.7c-3,0-5.9-0.9-8.3-2.5c-0.4-0.2-0.7-0.5-1.1-0.8c-1.6,0.1-3.2,0-4.9-0.3
			c-4.7-0.9-9.4-3.5-14.4-8.1c-1.6-1.3-3.2-2.7-4.7-4.3c-2.2,5.9-8,11.9-14.1,14.7c2.3,1.9,3.7,4.9,3.5,8.1
			c-0.2,2.7-1.4,5.1-3.4,6.9l1.9,14l25.1,3.9c3.5,0.5,5.9,3.8,5.3,7.3c-0.4,2.6-2.3,4.6-4.7,5.2c-1,1-2.4,1.6-4,1.6
			c-1.9,0-4.4-2.5-4.4-2.5l-4.7-0.7c-0.9,1.9-2.8,3.2-5,3.2c-2.8,0-5.2-2.1-5.5-4.9l-3.5-0.5c-0.1,3.3-3.1,5.9-6.6,5.3
			c-2.7-0.5-4.6-3-4.6-5.7c0-0.5,0.1-0.9,0.2-1.3l-4.5-0.7c-3.5-0.5-5.9-3.8-5.3-7.3c0.5-3.2,3.2-5.4,6.3-5.4c0.3,0,0.7,0,1,0.1
			l5.8,0.9l-1.4-10.3c-4.2-1-7.4-4.6-7.7-9c-4.9,1.5-10.1,2.3-15.4,2.3c-2.6,0-5.1-0.2-7.5-0.5"/>
	</g>
	<g>
		<path class="st2" d="M89.7,293.3c-0.2,2.5-1.2,4.7-2.8,6.4c-1,0.9-2.2,1.7-3.5,2.2v0.2v13.4l20.3,2.1c3.2,0.3,5.6,3.2,5.3,6.5
			c-0.3,3-2.9,5.3-5.9,5.3h-0.6l-4.2-0.4c-0.6,3.1-3.9,5.2-7.3,4c-2-0.8-3.6-5-3.6-5v-0.1l-1.4-0.1c0,0.1,0,0.1,0,0.2
			c0,3-2.5,5.5-5.6,5.3c-2.9-0.2-5.1-2.7-5-5.6c0-0.4,0.1-0.7,0.1-1l-2.5-0.3v0.5c0,3.2-2.8,5.7-6.1,5.2c-2.5-0.4-4.4-2.6-4.5-5.1
			c0-0.6,0.1-1.2,0.2-1.7l-2.1-0.2c-3.2-0.3-5.6-3.2-5.2-6.4c0.3-3,2.9-5.3,5.8-5.3h0.6l14.5,1.5v-12.7c0,0-0.2-0.1-0.4-0.3
			c-0.9-0.6-3.1-2.1-4.5-4.1c-0.6-0.9-1.3-3.2-1.3-3.3c-0.1-0.7-0.2-1.4-0.2-2.1c0-0.6,0.1-1.2,0.2-1.7c0.1-1.4,0.4-2.7,1-3.7
			c-4.1-2.4-7.9-5.1-11.3-8.4l-0.2-0.2c0,0-0.9-0.6-2.4-1.8c-6.5,3.1-12.9,4-18.4,2c-2.8,1-5.4,1.7-7.8,2.1
			c-5.3,0.7-9.4-0.2-10.8-2.8c-0.2-0.4-0.4-0.9-0.4-1.4l0,0c0-0.2,0-0.3,0-0.5c0-0.1,0-0.3,0-0.4c0.1-1.3,0.5-2.8,1.3-4.4
			c1.1-2.3,2.8-4.9,5.1-7.6c-3.5-12.2-1.2-29.6,7.2-46.5c1.7-3.3,3.5-6.5,5.4-9.5c-6.5,1.8-11,2-11.8,0.3
			c-1.8-3.6,12.1-14.1,30.9-23.4c3.6-1.8,7.1-3.4,10.4-4.8l0.2-3.4l0,0l-0.3-6.2c0-3-1.5-5.9-4-7.5c-20.4-13.3-33.4-35.2-32.7-59.6
			c0.1-3.9,0.6-7.8,1.4-11.5c-8,3.1-15.4,3.2-16.7,0.1c-1.4-3.3,4.3-8.8,12.7-12.3c2-0.9,4-1.5,5.9-2c-7.2-1.9-12.1-5.5-11.7-8.9
			c0.6-4.1,8.8-6.4,18.4-5c1.5,0.2,2.9,0.5,4.2,0.8c9.7-12.4,23.8-21.8,40.1-26.3c-13.9-9.5-22.3-20.9-19-26.1
			c3.5-5.4,18.5-1.9,33.4,7.7c5.1,3.3,9.6,6.9,13,10.5c-2.4-7.7-7.6-14.1-14.3-17.6c-3.5-1.8-2.6-7,1.3-7.5c1.2-0.2,2.5-0.3,3.7-0.3
			c15.4,0,27.9,13.5,27.9,30.2c0,0.9,0,1.8-0.1,2.7c0.7-2.3,1.1-4.8,1.1-7.4c0-8.4-4.1-15.9-10.5-20.5c-2.2-1.6-0.7-5.1,1.9-4.7
			c0.1,0,0.2,0,0.3,0.1c11.1,1.9,19.8,11.2,20.9,22.5c0.5,5.3-0.6,10.3-2.9,14.5c1.1,0.5,2.1,1,3.2,1.5c2.3-2.2,3.8-5.3,3.8-8.7
			c0-1.7-0.4-3.4-1-4.8c5,1.4,8.7,6,8.7,11.4c0,2.8-1,5.3-2.5,7.3c19.8,13.3,32.4,34.9,31.7,59c-0.1,3.9-0.6,7.8-1.4,11.5
			c-0.9,4.4-1.1,8.8-0.9,13.3v1.2c0,14.7-14,27.3-34.1,33.2c-2.7,0.8-4.6,3.3-4.6,6.1v4.4c0,0,0.7,3,1.9,5.3c0,0,0,0.1,0.1,0.1l0,0
			c1.2,0.6,2.5,1.2,3.7,1.8c12.3,6.1,22.5,12.7,27.6,17.5c2.5,2.5,3.7,4.5,3.1,5.7c-0.6,1.2-3,1.5-6.5,0.9c2,3,3.9,6.2,5.7,9.5
			c0.8,1.6,1.5,3.2,2.2,4.9c2,4.6,3.6,9,4.8,13.1c3.3,11.3,3.7,20.9,1.3,28.3c-1.1,4.5-2.9,8.4-5.4,11.4c0.1,0.5,0.3,0.9,0.7,1.2
			c1.9,1.7,1.5,4.8-0.8,5.9c-2.1,1.1-4.5,1.7-7,1.7c-3,0-5.9-0.9-8.3-2.5c-0.4-0.2-0.7-0.5-1.1-0.8c-1.6,0.1-3.2,0-4.9-0.3
			c-4.7-0.9-9.4-3.5-14.4-8.1c-1.6-1.3-3.2-2.7-4.7-4.3c-2.2,5.9-8,11.9-14.1,14.7c2.3,1.9,3.7,4.9,3.5,8.1
			c-0.2,2.7-1.4,5.1-3.4,6.9l1.9,14l25.1,3.9c3.5,0.5,5.9,3.8,5.3,7.3c-0.4,2.6-2.3,4.6-4.7,5.2c-1,1-2.4,1.6-4,1.6
			c-1.9,0-4.4-2.5-4.4-2.5l-4.7-0.7c-0.9,1.9-2.8,3.2-5,3.2c-2.8,0-5.2-2.1-5.5-4.9l-3.5-0.5c-0.1,3.3-3.1,5.9-6.6,5.3
			c-2.7-0.5-4.6-3-4.6-5.7c0-0.5,0.1-0.9,0.2-1.3l-4.5-0.7c-3.5-0.5-5.9-3.8-5.3-7.3c0.5-3.2,3.2-5.4,6.3-5.4c0.3,0,0.7,0,1,0.1
			l5.8,0.9l-1.4-10.3c-4.2-1-7.4-4.6-7.7-9c-4.9,1.5-10.1,2.3-15.4,2.3c-2.6,0-5.1-0.2-7.5-0.5"/>
		<g>
			<g>
				<path class="st3" d="M112.5,134.9c0.1,0,0.2,0.1,0.4,0.1c-0.3,1-0.5,2.1-0.5,3.3c0,1.5,0.2,3.1,0.6,4.7c0.5,2,1.3,4,2.5,6
					c3.6,6.2,9.2,10,13.5,9.5c1.5,2.3,2.7,3.6,4.8,5.7c3.9-2.7,6.4-6.9,6.4-11.9l0,0c0-0.9,0.5-1.8,1.3-2.2c4.8-2.5,8-7.4,8-13.2
					c0-2.3-0.5-4.5-1.4-6.4c-0.7-1.4-1-2.9-1.3-4.5c-0.2-1.4-0.6-2.8-1-4.2c-3.5-10.9-12.2-17.9-19.5-15.6c-1.5,0.5-2.9,1.3-4,2.5
					l0,0c-2.6,2.3-6.1,7.3-9.2,13.4c-0.7,1.4-1.3,2.7-1.9,4c-1.5,0.9-2.5,2.6-2.4,4.4c0,0.4,0.1,0.7,0.2,1.1
					C109.4,133.2,110.7,134.5,112.5,134.9"/>
				<path class="st4" d="M128.9,158.4c1.6-3.5,0.8-9.5-3.2-15c-4-5.5-12.5-9.1-12.9-8.4c-0.8,1.3-0.6,5.6,0.1,8
					c0.6,1.9,1.6,4.4,2.7,6.4C119.3,155.6,124.6,158.9,128.9,158.4z"/>
			</g>
			<g>
				<g>
					<path class="st5" d="M105.8,111.7c3.8-3.2,6.2-7.9,6.2-12.9v-0.1c0-7.3-4-13.7-9.8-17.2l-16.7-1.7C77.7,82.5,72,89.9,72,98.7
						c0,0.4,0,0.8,0,1.1c0.8,13.9,16.2,21.9,28.5,15.3C102.3,114.3,104.1,113.1,105.8,111.7z"/>
					<path class="st5" d="M158.3,123.6c6.8,3.3,18.4-8.6,18.4-18.2c0-7.4-4-13.8-9.9-17.3l-10.2-0.9c-7.1-0.7-12.5,4.6-12.1,11.9
						C144.9,108.3,146.6,118,158.3,123.6z"/>
					<path class="st6" d="M152.2,115.9c1.6,1.1,3.6,1.8,5.7,1.8c5.5,0,10-4.5,10-10s-4.5-10-10-10c-2.1,0-4,0.6-5.7,1.8
						c-2.6,1.8-4.3,4.8-4.3,8.2C147.9,111,149.6,114.1,152.2,115.9z"/>
					<path class="st6" d="M99.5,107.3c1.8-1.6,2.9-4,2.9-6.6s-1.1-5-2.9-6.6C97.7,92,95,90.7,92,90.7c-5.5,0-10,4.5-10,10
						s4.5,10,10,10C95,110.7,97.7,109.4,99.5,107.3z"/>
					<g>
						<path d="M156.2,98.6C156.2,98.6,156.3,98.6,156.2,98.6c4.7,0.3,8.5,4.2,8.6,8.8c0.1,5.1-4,9.2-9,9.2l0,0
							c-2.3,0-4.4-1.3-5.7-3.1c-1.8-2.6-3.6-7,0-11.9C151.6,99.7,153.8,98.5,156.2,98.6z"/>
						<path d="M99.4,107.3c-1.6,1.5-3.7,2.4-6.1,2.4c-5,0-9-4-9-9s4-9,9-9c2.4,0,4.5,0.9,6.1,2.4C99.4,94.1,106.4,100.3,99.4,107.3z
							"/>
					</g>
				</g>
				<path class="st7" d="M190.7,85.9l23.3,2.5c2.3,0.2,4,2.3,3.7,4.6l0,0c-0.5,4.6,0.2,12.3-7.1,11.2c-0.3-0.1-0.6,0.1-0.6,0.4
					c-2.6,11.4-9,19.8-19.4,25.2c-2.9,1.1-4.8,1.8-5.6,2c-22.7,6.1-43.3-10.2-44.4-33.3c0-0.5-0.4-1-0.8-1.2
					c-5.8-2.3-11.7-2.6-17.8-0.9c-0.4,0.1-0.6,0.4-0.7,0.8c-5.5,20.2-26.3,32.3-46.4,24.3c-14-5.5-21.6-16.4-22.8-32.6
					c0-0.3-0.2-0.5-0.5-0.6c-5-1.3-10.5,0.6-9.8-7.3c0.4-5,0.2-10.9,7.3-10.1c22.2,2.5,44.3,4.8,66.5,7.1c4.6,0.5,6.7,3.2,6.4,8.3
					c0,0.2,0.2,0.4,0.4,0.5c0.1,0,0.1,0,0.2,0c6.4-2.8,12.9-2.9,19.5-0.5c0.3,0.1,0.6,0,0.8-0.3c1.5-3.7,4-4.6,8-4.2
					c12.8,1.3,25.7,2.7,38.5,4C189.6,85.8,190.5,85.9,190.7,85.9z M102.8,81.9c-6-1.1-12.1-1.7-18.3-1.9l-23.7-2.4
					c-0.3,0-0.6,0.1-0.7,0.4c-6.2,14.4,0.2,31.1,13.7,38c17.3,8.9,37.5-0.1,42.8-18.6C119.6,86.2,113.1,82,102.8,81.9z M160.8,124.4
					c9.8,5.2,19.6,5.4,29.3,0.7c12.3-7.3,17.5-18,15.6-32.3c-0.1-0.4-0.3-0.6-0.7-0.7l-13.4-1.3l-24.2-2.5c-5.2-1-13-2.4-17.7,0.3
					c-6.3,3.6-5.7,10.3-4.6,16.9C146.5,115,151.8,121.3,160.8,124.4z"/>
			</g>
			<g>
				<path class="st8" d="M89.7,293.3c0,2.8-1.3,4.9-2.8,6.3c-0.1,0.1-0.1,0.1-0.2,0.2c-1.6,1.5-3.4,2.3-3.4,2.3v13.4l20.3,2.1
					c3.2,0.3,5.6,3.2,5.3,6.5c-0.3,3-2.9,5.3-5.9,5.3h-0.6l-4.2-0.4c-0.6,3.1-3.9,5.2-7.3,4c-2-0.8-3.6-5-3.6-5v-0.1l-1.4-0.1
					c0,0.1,0,0.1,0,0.2c0,3-2.5,5.5-5.6,5.3c-2.9-0.2-5.1-2.7-5-5.6c0-0.4,0.1-0.7,0.1-1l-2.5-0.3v0.5c0,3.2-2.8,5.7-6.1,5.2
					c-2.5-0.4-4.4-2.6-4.5-5.1c0-0.6,0.1-1.2,0.2-1.7l-2.1-0.2c-3.2-0.3-5.6-3.2-5.2-6.4c0.3-3,2.9-5.3,5.8-5.3h0.6l14.5,1.5v-12.7
					c0,0-6.6-2.4-6.4-9.7c0-0.1,0-0.2,0-0.3c0-0.1,0-0.2,0-0.4c0-0.2,0-0.5,0.1-0.7V291c0.2-1.2,0.5-2.5,1-3.9
					C76.1,290.2,82.6,292.4,89.7,293.3"/>
				<path class="st8" d="M129.1,298.3c0.3-0.3,2.4-2.4,3.2-5.4c0.6-2.2,0.5-4.8-1.4-7.5c-0.5-0.7-1.1-1.4-1.9-2.1l0,0
					c-4.2,3.7-9.7,6.6-16.1,8.4c0.2,1.4,0.5,2.6,1,3.6c2.2,4.7,6.7,5.2,6.7,5.2l1.4,10.3l-5.8-0.9c-0.3-0.1-0.7-0.1-1-0.1
					c-3.1,0-5.8,2.2-6.3,5.4c-0.6,3.5,1.8,6.8,5.3,7.3l4.5,0.7c-0.1,0.4-0.2,0.8-0.2,1.3c0,2.7,1.9,5.2,4.6,5.7
					c3.5,0.6,6.5-2,6.6-5.3l3.5,0.5c0.3,2.8,2.7,4.9,5.5,4.9c2.2,0,4.1-1.3,5-3.2l4.7,0.7c0,0,2.5,2.5,4.4,2.5c1.6,0,3-0.6,4-1.6
					c2.4-0.6,4.3-2.6,4.7-5.2c0.6-3.5-1.8-6.8-5.3-7.3l-25.1-3.9L129.1,298.3"/>
			</g>
		</g>
	</g>
	<g>
		<g>
			<g>
				<path class="st9" d="M68.1,179.5c0.4-11.7-0.9-13.4-0.9-13.4s22.2,2.1,39.2,14.5c6,4.4,11.4,10.2,14.9,17.6c0,0,0.5-10,8.4-18.5
					c3.6-3.9,8.8-7.4,16.2-9.6c0,0-1,3.2-0.6,6.9c0.2,1.8,0.8,3.8,2,5.6l3.7,1.8c5.1,2.5,9.9,5.2,14,7.7l10.4,7.1
					c0,0,14.7,11.8-0.3,9.4c2,3,3.9,6.1,5.7,9.4c0.7,1.5,1.5,3.1,2.2,4.7c0,0,1.6,4,3.1,7.9l-3.1,1.1l-5.7,1.8
					c-10.1,3-19.9,5.2-28.8,6.6c0.9,15.6-5.2,28.2-5.2,28.2c-3.4,9.9-14,14.8-14,14.8c7.8,7.6,0.1,15.1-0.1,15l-8.6,2.2
					c-7.4-1.7-7.7-9-7.7-9c-11.4,3.9-23.1,1.7-23.1,1.7c-0.2,2.5-1.2,4.8-2.8,6.5c-1,0.9-2.2,1.8-3.5,2.3l-7.2,0.3
					c0,0-9.6-4.3-5.3-15.2c0,0-5-2.5-13.9-10.4l6.9-4.2c8.3-6,16.3-15.4,22.3-27.1c-8.1-1.4-16.9-3.5-26.1-6.2l-27.1-10.1
					c0,0-1.6-0.7-4.2-2.1l4.2-10c1.7-3.3,3.5-6.6,5.5-9.5c-20.6,5-9.9-4.5-5.4-8.3c4.6-3.9,15.9-10.4,15.9-10.4
					c2.7-1.5,5.5-3,8.5-4.5C61.3,182.5,64.7,180.9,68.1,179.5"/>
				<path class="st10" d="M127.2,206.7c-1.1,1.8-0.9,11.1-0.7,14.4c0.4,6.7-0.3,15.5-2.3,25c-0.9,4.2-2,8.2-3.2,11.9l-7,7.2
					l-6.7-7.4c-0.1,0.2,4.7-12.6,6.3-20.4c2.1-9.8,2.8-18.9,2.3-25.7c-0.2-2.5-0.5-4.6-1-6.4l-0.8-2.1c-1.3-3.3-3.3-6.3-5.9-8.6
					c-2.4-2.2-5.1-3.9-8.7-6.3c2.5-2.6,5.3-4.8,7-7.2c6.4,4.5,10.5,10.1,12.7,13.6l2,3.8c0.1-3.8,2-11.9,8.9-19
					c2.2,2.1,5.3,4.5,7.9,7.2c-3.9,3-6.9,6.9-9.1,11.8c-0.2,0.4-0.3,0.8-0.5,1.2L127.2,206.7z"/>
			</g>
			<g>
				<path class="st11" d="M106.4,180.9c-1.7,2.4-4.6,4.6-7.1,7.3c-1.4,1.5-2.6,3-3.3,4.8c-7.5-7.1-17.3-13.3-27.9-13.8"/>
				<path class="st11" d="M130.5,179.2c2.2,2.1,5.2,4.5,7.9,7.2c2.3,2.3,4.4,5,5.3,8c0.8-3,2-4.7,2-7.7c0.1-0.9-0.1-3.1,1.4-4.1"/>
				<path class="st12" d="M118.8,194.4c1.4,2.3,2.5,4.1,2.5,4.1l1-4.3c3.1,0.2,5.4,2.5,6.3,5.4c0.2,0.7,0.4,1.5,0.4,2.3
					c0,1.3-0.3,2.5-0.9,3.5c-0.3,0.5-0.6,1-1,1.4c-0.1,0.2-0.3,0.3-0.4,0.4c-1.1,1.1-2.5,1.8-4.1,2c-0.4,0.1-0.7,0.1-1.1,0.1
					c-0.8,0-1.5-0.1-2.2-0.3c-0.4-0.1-0.8-0.3-1.3-0.5c-1.2-0.6-2.2-1.6-2.9-2.7c-0.5-0.8-0.8-1.6-1-2.5c-0.1-0.4-0.1-0.7-0.1-1.1
					c0-0.1,0-0.2,0-0.3C113.9,198.5,115.7,195.3,118.8,194.4z"/>
				<path class="st11" d="M99.4,188.2c0,0,13.6,7.8,14.6,14.5"/>
				<path class="st11" d="M115.3,206.2c0,0,4.1,21.2-8.1,51.6l6.8,7.4l7-7.2"/>
				<path class="st11" d="M118.8,194.4c0,0-3.3-7.5-12.7-13.6"/>
				<path class="st11" d="M122.3,194.2c0,0,2.6-10.3,8.4-15.2"/>
				<path class="st11" d="M138.4,186.4c0,0-8.4,7-9.8,13.4"/>
				<path class="st11" d="M126.7,207.2c0,0-0.3,10.9-0.2,17.3c0,2.9-0.1,5.8-0.4,8.7c-0.8,7.3-2.5,20.1-5,24.8"/>
			</g>
		</g>
		<g>
			<path d="M147.3,182.8c-1.4,1.1-1.2,3.3-1.3,4.2c0,3.1-1.5,5.3-2.2,8.4c-0.6-2.6-2-4.8-4-7.1c-1.9,1.6-8.6,13.9-10.2,31.7
				c-1,10.9-11.5,20.1-12.9,32.2c-1.7-14-5-12-12.4-40.3c-2.4-9.1-3.9-18.9-6.6-21.2c0,0-0.7,0.8-1.6,2.9c-8-7.8-18.1-13.6-28-14
				c-3.3,1.4-6.9,3.1-10.5,4.8c-3,1.5-5.8,3-8.5,4.5c0,0-11.6,6.5-16,10.5s-15,13.4,5.6,8.4c-1.9,3-4,6.2-5.7,9.6l27.2,10.1
				c11,3.2,21.6,5.6,31,7c-1.2,3.2-2.7,6.3-4.3,9.5c-6.2,12.4-14.7,22.3-23.3,28.6l-6.7,4c2.3,3.2,13.9,10.5,13.9,10.5
				c-4.3,10.9,5.4,15.4,5.4,15.4l7.2-0.3c1.3-0.5,2.5-1.3,3.5-2.2c1.6-1.7,2.6-3.9,2.8-6.4c0,0,11.6,2,23-2c0,0,0.4,7.6,7.8,9.2
				l8.6-2.2c0,0,7.7-7.6,0-15.1c0,0,10.6-4.7,14-14.6c0,0,8.6-17.8,3.9-37.1c9.2-1.4,19.4-3.7,30.1-6.9l5.8-1.8
				c-0.7-1.6-1.4-3.2-2.1-4.7c-1.7-3.4-3.7-6.5-5.8-9.5c15,2.4,0.4-9.4,0.4-9.4l-10.3-7.1c-4.2-2.5-9-5.2-14.1-7.8L147.3,182.8z"/>
			<g>
				<path class="st13" d="M71,179.8c3.6,14.6,16.4,18.4,20.8,28.8c0.9,2.1,6,13.5,8.2,13.9l2.6,0.5c0,0-2.7,4.8-1,8.7
					c5.6,12.9,11.9,17.3,15.1,20.5"/>
				<path class="st13" d="M116.7,252.1c0,0.9,0.1,1.8,0.1,2.7c0,1.6-0.1,3.2-0.2,4.9c0,0.4-0.1,0.8-0.1,1.1c-0.2,1.5-0.6,3-1.3,4.3"
					/>
				<path class="st13" d="M115,265L115,265c0,0,3.9,3.7,8.1,4.3c4.8,0.6,9,0.1,15.3-2c1.5-0.5,4.2-2.7,5.9-1.9"/>
				<path class="st13" d="M115.2,265.1c-1.6,3.2-4.6,5.6-8.2,6.6c-7.4,1.9-31.8,1.6-37.1-4.3"/>
				<path class="st13" d="M145.6,189.7c3.4,0.9-10.3,37.5-10.3,37.5c-0.4,1.1-1.4,2-2.6,2.3l-1.8,0.5c0.3,0.7,0.6,1.3,1,1.9
					c0.5,0.9,0.6,1.9,0.2,2.9c-4.1,9.4-10.6,13.7-15.4,17.4"/>
			</g>
		</g>
	</g>
</g>
</svg>
