<?xml version="1.0" encoding="utf-8"?>
<!-- Generator: Adobe Illustrator 28.0.0, SVG Export Plug-In . SVG Version: 6.00 Build 0)  -->
<svg version="1.1" id="Capa_1" xmlns="http://www.w3.org/2000/svg" xmlns:xlink="http://www.w3.org/1999/xlink" x="0px" y="0px"
	 viewBox="0 0 391 213.8" style="enable-background:new 0 0 391 213.8;" xml:space="preserve">
<style type="text/css">
	.st0{fill:none;}
	.st1{fill:#291352;}
	.st2{fill:#FDDCCA;}
	.st3{fill:url(#SVGID_1_);}
</style>
<pattern  x="-342.9" y="563.6" width="96" height="89" patternUnits="userSpaceOnUse" id="Estrellas" viewBox="0 -89 96 89" style="overflow:visible;">
	<g>
		<rect y="-89" class="st0" width="96" height="89"/>
		<g>
			<rect y="-89" class="st1" width="96" height="89"/>
			<ellipse transform="matrix(0.471 -0.8821 0.8821 0.471 52.2572 70.1123)" class="st2" cx="84.6" cy="-8.5" rx="3.6" ry="4.1"/>
			<ellipse transform="matrix(0.471 -0.8821 0.8821 0.471 96.3871 8.3184)" class="st2" cx="55.1" cy="-76.2" rx="3.6" ry="4.1"/>
			<ellipse transform="matrix(0.471 -0.8821 0.8821 0.471 49.9998 40.9273)" class="st2" cx="59.1" cy="-21.2" rx="3.6" ry="4.1"/>
			<ellipse transform="matrix(0.471 -0.8821 0.8821 0.471 69.4618 11.1224)" class="st2" cx="44" cy="-52.4" rx="3.6" ry="4.1"/>
			<ellipse transform="matrix(0.471 -0.8821 0.8821 0.471 23.7781 12.0691)" class="st2" cx="22" cy="-13.8" rx="3.6" ry="4.1"/>
			<ellipse transform="matrix(0.471 -0.8821 0.8821 0.471 41.2339 -10.2756)" class="st2" cx="12" cy="-39.5" rx="3.6" ry="4.1"/>
			<ellipse transform="matrix(0.471 -0.8821 0.8821 0.471 76.5442 41.1728)" class="st2" cx="72.6" cy="-43.2" rx="3.6" ry="4.1"/>
			<ellipse transform="matrix(0.471 -0.8821 0.8821 0.471 72.8117 -19.6284)" class="st2" cx="20" cy="-70.5" rx="3.6" ry="4.1"/>
		</g>
		<ellipse transform="matrix(0.471 -0.8821 0.8821 0.471 100.0024 33.1484)" class="st2" cx="77.6" cy="-66.8" rx="3.6" ry="4.1"/>
	</g>
</pattern>
<pattern  id="SVGID_1_" xlink:href="#Estrellas" patternTransform="matrix(1 0 0 -1 84 -16970.4395)">
</pattern>
<rect class="st3" width="391" height="213.8"/>
</svg>
