<?xml version="1.0" encoding="utf-8"?>
<!-- Generator: Adobe Illustrator 28.0.0, SVG Export Plug-In . SVG Version: 6.00 Build 0)  -->
<svg version="1.1" id="Capa_1" xmlns="http://www.w3.org/2000/svg" xmlns:xlink="http://www.w3.org/1999/xlink" x="0px" y="0px"
	 viewBox="0 0 1366 768" style="enable-background:new 0 0 1366 768;" xml:space="preserve">
<style type="text/css">
	.st0{fill:none;}
	.st1{fill:#291352;}
	.st2{fill:#FDDCCA;}
	.st3{fill:url(#Motivo_nuevo_2);}
</style>
<pattern  width="96" height="89" patternUnits="userSpaceOnUse" id="Motivo_nuevo_2" viewBox="0 -89 96 89" style="overflow:visible;">
	<g>
		<rect y="-89" class="st0" width="96" height="89"/>
		<rect y="-89" class="st1" width="96" height="89"/>
		<ellipse transform="matrix(0.471 -0.8821 0.8821 0.471 84.0751 36.3332)" class="st2" cx="72.3" cy="-51.9" rx="3.6" ry="4.1"/>
		<ellipse transform="matrix(0.471 -0.8821 0.8821 0.471 67.1675 8.1384)" class="st2" cx="40.4" cy="-51.9" rx="3.6" ry="4.1"/>
		<ellipse transform="matrix(0.471 -0.8821 0.8821 0.471 50.2599 -20.0564)" class="st2" cx="8.4" cy="-51.9" rx="3.6" ry="4.1"/>
		<ellipse transform="matrix(0.471 -0.8821 0.8821 0.471 88.7373 14.3705)" class="st2" cx="56.4" cy="-66.8" rx="3.6" ry="4.1"/>
		<ellipse transform="matrix(0.471 -0.8821 0.8821 0.471 105.6449 42.5652)" class="st2" cx="88.3" cy="-66.8" rx="3.6" ry="4.1"/>
		<ellipse transform="matrix(0.471 -0.8821 0.8821 0.471 71.8297 -13.8243)" class="st2" cx="24.4" cy="-66.8" rx="3.6" ry="4.1"/>
		<ellipse transform="matrix(0.471 -0.8821 0.8821 0.471 110.5648 21.0322)" class="st2" cx="72.8" cy="-81.7" rx="3.6" ry="4.1"/>
		<ellipse transform="matrix(0.471 -0.8821 0.8821 0.471 93.6572 -7.1625)" class="st2" cx="40.9" cy="-81.7" rx="3.6" ry="4.1"/>
		<ellipse transform="matrix(0.471 -0.8821 0.8821 0.471 76.7496 -35.3573)" class="st2" cx="8.9" cy="-81.7" rx="3.6" ry="4.1"/>
		<ellipse transform="matrix(0.471 -0.8821 0.8821 0.471 62.5053 30.1011)" class="st2" cx="56.4" cy="-37.1" rx="3.6" ry="4.1"/>
		<ellipse transform="matrix(0.471 -0.8821 0.8821 0.471 79.4129 58.2959)" class="st2" cx="88.3" cy="-37.1" rx="3.6" ry="4.1"/>
		<ellipse transform="matrix(0.471 -0.8821 0.8821 0.471 45.5976 1.9063)" class="st2" cx="24.4" cy="-37.1" rx="3.6" ry="4.1"/>
		<ellipse transform="matrix(0.471 -0.8821 0.8821 0.471 57.8431 52.0638)" class="st2" cx="72.3" cy="-22.2" rx="3.6" ry="4.1"/>
		<ellipse transform="matrix(0.471 -0.8821 0.8821 0.471 40.9354 23.869)" class="st2" cx="40.4" cy="-22.2" rx="3.6" ry="4.1"/>
		<ellipse transform="matrix(0.471 -0.8821 0.8821 0.471 24.0278 -4.3258)" class="st2" cx="8.4" cy="-22.2" rx="3.6" ry="4.1"/>
		<ellipse transform="matrix(0.471 -0.8821 0.8821 0.471 36.2732 45.8317)" class="st2" cx="56.4" cy="-7.3" rx="3.6" ry="4.1"/>
		<ellipse transform="matrix(0.471 -0.8821 0.8821 0.471 53.1808 74.0265)" class="st2" cx="88.3" cy="-7.3" rx="3.6" ry="4.1"/>
		<ellipse transform="matrix(0.471 -0.8821 0.8821 0.471 19.3656 17.6369)" class="st2" cx="24.4" cy="-7.3" rx="3.6" ry="4.1"/>
	</g>
</pattern>
<rect x="-313.8" y="-137.6" class="st3" width="2070.7" height="1105.9"/>
</svg>
