<?xml version="1.0" encoding="utf-8"?>
<!-- Generator: Adobe Illustrator 27.9.0, SVG Export Plug-In . SVG Version: 6.00 Build 0)  -->
<svg version="1.1" id="Capa_1" xmlns="http://www.w3.org/2000/svg" xmlns:xlink="http://www.w3.org/1999/xlink" x="0px" y="0px"
	 viewBox="0 0 500 500" style="enable-background:new 0 0 500 500;" xml:space="preserve">
<style type="text/css">
	.st0{fill:none;}
	.st1{fill:#291352;}
	.st2{fill:#FDCC9F;}
	.st3{fill:#FCDD9D;}
	.st4{fill:#ECEB9B;}
	.st5{fill:#5B74E6;}
	.st6{fill:#FD73AB;}
	.st7{fill:#FEF1B4;}
	.st8{fill:#FF248F;}
	.st9{fill:#54E6E9;}
	.st10{fill:#2AE1FF;}
	.st11{fill:url(#Motivo_nuevo_2);}
</style>
<pattern  width="200" height="200" patternUnits="userSpaceOnUse" id="Motivo_nuevo_2" viewBox="0 -200 200 200" style="overflow:visible;">
	<g>
		<rect x="0" y="-200" class="st0" width="200" height="200"/>
		<rect x="0" y="-200" class="st1" width="200" height="200"/>
		<g>
			<path class="st2" d="M164.7-162.6c-1.1-2.4-1.6-4.8-1.6-7.4c0-0.6,0.5-1.1,1.2-1.1c0.1,0,0.3,0,0.4,0.1c3.7,1.2,1.6,6.1,0.9,8.4
				C165.3-161.9,165-161.9,164.7-162.6z"/>
			<path class="st3" d="M165.2-160.7c2.9-1.9,5.2-4.3,6.9-7.2c0.3-0.6,1.1-0.8,1.7-0.4c0.3,0.1,0.5,0.4,0.6,0.7l0.5,1.5
				c0.1,0.3,0,0.6-0.3,0.7c-2.7,1.9-5.2,4-7.3,6.5c-0.4,0.4-0.3,1.1,0.1,1.4l7.1,6.1c0.5,0.4,0.6,1.1,0.4,1.6l-0.1,0.3
				c-0.3,0.6-0.9,0.8-1.5,0.6c-0.1,0-0.2-0.1-0.3-0.2l-7.3-6.2c-0.7-0.6-1.4-0.6-2,0.1l-5.7,6c-0.4,0.4-0.8,0.6-1.4,0.6
				c-0.9,0-1.5-0.3-1.6-1.1c-0.2-1.1,0.3-2,1.6-2.9c2.2-1.5,4.2-3.1,5.9-5c0.5-0.5,0.5-1.4-0.1-1.8l-6.7-5.8
				c-0.7-0.6-0.9-1.7-0.4-2.5l0.1-0.2c0.4-0.6,1.2-0.8,1.9-0.5c0.2,0.1,0.3,0.2,0.4,0.4c1.9,2.6,4,5,6.5,7.1
				C164.4-160.4,164.8-160.4,165.2-160.7z"/>
			<path class="st3" d="M157.6-158.8c0.3,0.1,0.4,0.4,0.3,0.7c0,0.1-0.1,0.1-0.1,0.2c-1.7,1.4-3.7,2-5.9,1.6
				c-0.9-0.1-1.6-0.8-1.7-1.6c-0.3-1.2,0.3-1.9,1.6-2.1C153.2-160.2,155.2-159.8,157.6-158.8z"/>
			<path class="st4" d="M179.9-157.2c0,0.4-0.4,0.7-0.8,0.7c0,0,0,0,0,0l-0.9,0c-3.5-0.1-6.3-0.9-6.3-1.8v-0.2
				c0-0.9,2.9-1.6,6.4-1.5l0.9,0c0.4,0,0.8,0.3,0.8,0.7L179.9-157.2z"/>
			<path class="st3" d="M165.5-153l1.3,5.3c0.1,0.4-0.1,0.7-0.4,0.9l-1.5,0.9c-0.4,0.3-1,0.2-1.3-0.2c-0.1-0.1-0.1-0.2-0.1-0.4
				l-0.6-4c0-0.1,0-0.3,0-0.4l0.7-2.2c0.2-0.5,0.7-0.7,1.1-0.6C165.2-153.5,165.4-153.3,165.5-153z"/>
		</g>
		<g>
			<path class="st3" d="M38.9-182.3c0,0.4-0.3,0.7-0.7,0.7h0h-0.4c-1.2,0-2.2-1-2.2-2.3c0,0,0,0,0,0v-0.3c0-1.2,1-2.3,2.2-2.3h0.4
				c0.4,0,0.7,0.3,0.7,0.7V-182.3z"/>
			
				<ellipse transform="matrix(0.4195 -0.9078 0.9078 0.4195 192.0906 -67.3085)" class="st3" cx="43.4" cy="-183.8" rx="2.8" ry="1.8"/>
			<path class="st3" d="M46.4-140.1c4.5-3,7.3-6.8,8.4-11.4c1.5-4.6,1-9-1.7-13.4c-0.1-0.2-0.3-0.3-0.5-0.2
				c-0.1,0.1-0.2,0.2-0.2,0.3l-0.2,2c-0.5-4-3.1-8.5-7.6-8c1.2-1,0.4-1.5-2.6-1.5c-0.4,0-0.7-0.1-0.9-0.4c-1.1-1.3-2.5-2.2-4.1-2.7
				c-0.2-0.1-0.2-0.2-0.1-0.4c0.3-0.3,0.5-0.6,0.4-0.8c6.9-1.1,12.5,0.4,16.7,4.5c3.8,3.7,5.7,8.5,5.8,14.3
				C59.8-149.3,55.4-143.5,46.4-140.1z"/>
			<path class="st5" d="M36.8-176.4c-1.3,1.6-2.7,3.2-4.2,4.8c-6.7,7.4-5.4,20.4,5.3,23.1c4.6,1.2,9,0.5,13.2-2
				c1-0.6,1.8-1.9,2.9-2.5c0.4-0.2,0.6-0.1,0.7,0.3c0.1,0.3,0.1,0.7-0.1,1.3c-1.1,4.6-3.9,8.3-8.4,11.4
				c-10.6,3.6-20.3-0.8-24.4-11.1c-3.9-10-0.7-18.2,9.6-24.5C32.8-176.4,34.6-176.6,36.8-176.4z"/>
			<path class="st6" d="M36.8-176.4c0.2,0,0.3,0,0.5,0c0,0.2-0.1,0.5-0.4,0.8c-0.2,0.2-0.1,0.3,0.1,0.4c1.6,0.6,3,1.5,4.1,2.7
				c0.2,0.3,0.6,0.4,0.9,0.4c3,0,3.8,0.5,2.6,1.5c-7.7,2.7-3.3,15.2,5.6,11.8c1.7-0.6,2.3-1.9,2-3.8l0.2-2c0-0.2,0.2-0.4,0.4-0.4
				c0.1,0,0.3,0.1,0.3,0.2c2.6,4.4,3.2,8.8,1.7,13.4c0.1-0.5,0.2-0.9,0.1-1.3c-0.1-0.4-0.4-0.5-0.7-0.3c-1.1,0.7-2,1.9-2.9,2.5
				c-4.2,2.5-8.5,3.2-13.2,2c-10.7-2.7-12.1-15.7-5.3-23.1C34.1-173.2,35.5-174.8,36.8-176.4z"/>
			<path class="st7" d="M52.2-162.6c0.3,1.9-0.3,3.2-2,3.8c-8.9,3.4-13.3-9.1-5.6-11.8C49-171.1,51.6-166.6,52.2-162.6z"/>
		</g>
		<g>
			<path class="st8" d="M47.4-41.6c2.2,0.3,3.9,1.9,3,4.1c-0.1,0.4-0.4,0.6-0.7,0.8l-1.5,0.8c-0.4,0.2-0.5,0.5-0.3,1l1.4,2.7
				c0.4,0.8,0.1,1.7-0.7,2.1c-0.5,0.3-1.1,0.2-1.6-0.1c-2.5-1.6-2.3-4.5-6.3-3.9c-0.3,0-0.5,0.2-0.7,0.4c-1.2,1.9-2.9,3.1-5.2,3.7
				c-0.3,0.1-0.6-0.1-0.7-0.4c0,0,0-0.1,0-0.1c-0.2-1.8,0.5-3.2,2.1-4c0.4-0.2,0.6-0.8,0.4-1.2c-0.1-0.2-0.3-0.4-0.6-0.5l-2.7-0.7
				c-0.8-0.2-1.4-1.1-1.1-1.9c0.2-0.6,0.7-1.1,1.3-1.2l2.9-0.4c0.3,0,0.5-0.3,0.4-0.6c0-0.1,0-0.2-0.1-0.2l-1.3-1.8
				c-0.2-0.3-0.2-0.6-0.1-0.9c0.7-1.3,3.7-2.3,4.4-0.2c0.3,1,0.8,2,0.8,2.9c0,0.6,0.3,0.9,1,0.9l1.1,0c0.4,0,0.8-0.4,0.8-0.8
				c0,0,0,0,0,0l-0.2-2.4c-0.1-1.2,0.5-1.8,1.7-1.9c1.8-0.1,2.9,0.8,3.1,2.5c0.1,0.3-0.1,0.5-0.4,0.6L47.3-42
				c-0.1,0-0.2,0.1-0.2,0.2C47.1-41.7,47.2-41.6,47.4-41.6L47.4-41.6z"/>
			<path class="st8" d="M41.8-33.1l2.1,0.8c0.9,0.4,1.4,1.5,1,2.4c0,0.1-0.1,0.2-0.2,0.3l-1.1,1.7c-0.6,0.8-1.7,1.1-2.5,0.5
				c-0.2-0.1-0.3-0.3-0.5-0.4l-1-1.3c-0.3-0.3-0.4-0.7-0.4-1.2l0.1-1.2c0-1,0.9-1.8,1.9-1.8C41.4-33.2,41.6-33.1,41.8-33.1z"/>
		</g>
		<path class="st2" d="M111.7-93h0.4c0.1,0,0.2,0.1,0.2,0.2c0.1,1.3-0.5,2.2-1.8,2.6c-0.3,0.1-0.6,0.4-0.6,0.7l-0.2,6.8
			c0,0.4-0.3,0.7-0.7,0.7c-0.1,0-0.2,0-0.3-0.1c-4.6-1.9-8.9-1.5-13,1.1c-0.7,0.4-1.6,0.3-2-0.4c-0.2-0.3-0.3-0.6-0.2-0.9l0.3-3.4
			c0-0.2-0.1-0.5-0.3-0.6l-5.7-4.2c-0.1-0.1-0.1-0.1-0.2-0.2c-1.2-2.9,2.9-4.7,4.7-6.4c0.2-0.2,0.3-0.5,0.3-0.8l-0.4-4.1
			c-0.1-0.9,0.6-1.8,1.5-1.9c0.2,0,0.5,0,0.7,0.1c4.3,1.5,8.5,1.3,12.6-0.5c0.7-0.3,1.5,0,1.8,0.7c0.1,0.2,0.1,0.5,0.1,0.8
			c-0.4,3.1-0.6,6.3,3.1,7.3c0.4,0.1,0.6,0.5,0.5,0.9c-0.1,0.3-0.3,0.5-0.7,0.6c-0.5,0-0.7,0.3-0.6,0.7
			C111.3-93.1,111.4-93,111.7-93z M102.8-88.5c2.1-1.1,3-3.7,1.9-5.9c0,0,0,0,0,0c-1.1-2.2-3.7-3.1-5.9-2.1c0,0,0,0,0,0
			c-2.1,1.1-3,3.7-1.9,5.9c0,0,0,0,0,0C98.1-88.3,100.7-87.4,102.8-88.5C102.8-88.5,102.8-88.5,102.8-88.5z"/>
		<g>
			<path class="st9" d="M155.7-35.5l-0.1-3.5c0-0.3,0.2-0.6,0.6-0.7l2.9-0.3c0.4,0,0.7,0.2,0.7,0.6c0,0,0,0.1,0,0.1l-0.1,4.4
				c0,0.4-0.3,0.6-0.7,0.6c0,0-0.1,0-0.1,0l-2.7-0.6C155.9-34.9,155.7-35.2,155.7-35.5z"/>
			<path class="st10" d="M157.2-26.5c-2.6-0.4-2.8-3.7-1.4-5.4c0.3-0.3,0.7-0.5,1.1-0.5l3.6-0.1c0.4,0,0.5,0.2,0.5,0.5
				C160.8-29.5,161-26,157.2-26.5z"/>
		</g>
	</g>
</pattern>
<rect x="-98.8" y="-44" class="st11" width="662.4" height="577.4"/>
</svg>
